<svg xmlns="http://www.w3.org/2000/svg" fill="none" viewBox="0 0 526 168">
  <path fill="#00D1FF"
    d="M294.74 37.82a10.66 10.66 0 0 1 10.66-10.66h85.27a10.66 10.66 0 0 1 10.65 10.66v21.31a10.66 10.66 0 0 1-21.31 0V48.47h-21.32v71.06h3.55a10.66 10.66 0 0 1 0 21.31h-28.42a10.66 10.66 0 1 1 0-21.31h3.56V48.47h-21.32v10.66a10.66 10.66 0 0 1-21.32 0V37.82ZM419.16 37.82a10.66 10.66 0 0 1 10.66-10.66h85.27a10.66 10.66 0 0 1 10.65 10.66v21.31a10.66 10.66 0 0 1-21.31 0V48.47H483.1v71.06h3.55a10.65 10.65 0 1 1 0 21.31h-28.42a10.65 10.65 0 1 1 0-21.31h3.56V48.47h-21.32v10.66a10.66 10.66 0 0 1-21.32 0V37.82ZM119.14 35.68l10.6 2.16-20.23 95.17-10.6-2.16 20.23-95.17Zm85.29 48.67-19.41-19.41v-15.3l34.71 34.7-34.71 34.67v-15.3l19.41-19.36Zm-141.99 0 34.72-34.72v15.3L77.75 84.36l19.4 19.36V119l-34.7-34.66Z" />
  <path fill="#1E64A5"
    d="M21 0A21 21 0 0 0 0 21v42a21 21 0 1 1 0 42v42a21 21 0 0 0 21 21h234.9a21 21 0 0 0 21-21v-42a21 21 0 1 1 0-42V21a21 21 0 0 0-21-21H21Zm0 21h234.9v26.67a41.8 41.8 0 0 0-21 36.33 41.8 41.8 0 0 0 21 36.33V147H21v-26.67A41.8 41.8 0 0 0 42 84a41.8 41.8 0 0 0-21-36.33V21Z" />
  <path fill="#00D1FF"
    d="M161.7 62.44c4 0 7.2.99 9.6 2.96 2.43 1.94 4.19 4.7 5.27 8.27a42.63 42.63 0 0 1 1.68 12.64c0 4.66-.68 8.8-2.02 12.43a19.24 19.24 0 0 1-5.91 8.57c-2.57 2.06-5.74 3.08-9.51 3.08-4.63 0-8.38-1.64-11.23-4.92v21.12l-11.32 1.2V63.73h9.95l.6 5.53a17.2 17.2 0 0 1 6.04-5.15 15.17 15.17 0 0 1 6.86-1.67Zm-3.3 8.49c-1.9 0-3.6.57-5.05 1.71a17.53 17.53 0 0 0-3.77 4.24V97.2c1.03 1.54 2.2 2.7 3.51 3.47a8.64 8.64 0 0 0 4.46 1.15c2.88 0 5.08-1.2 6.6-3.6 1.54-2.42 2.31-6.35 2.31-11.78 0-3.83-.31-6.87-.94-9.13-.6-2.28-1.5-3.91-2.7-4.88-1.2-1-2.67-1.5-4.41-1.5Z" />
</svg>